<svg aria-hidden="true" style="position: absolute; width: 0; height: 0; overflow: hidden;" version="1.1" xmlns="http://www.w3.org/2000/svg" xmlns:xlink="http://www.w3.org/1999/xlink">
<defs>
<symbol id="icon-Vector1" viewBox="0 0 32 32">
<path fill="#ff6b08" style="fill: var(--color1, #ff6b08)" d="M16 30.144l-2.24-2.217c-8.32-7.287-13.76-12.201-13.76-18.217 0-4.917 3.84-8.715 8.8-8.715 2.72 0.002 5.44 1.269 7.2 3.326 1.761-2.019 4.329-3.296 7.195-3.323l0.005-0c4.96 0 8.8 3.801 8.8 8.711 0 6.021-5.44 10.933-13.76 18.217l-2.24 2.219z"></path>
</symbol>
<symbol id="icon-search" viewBox="0 0 32 32">
<path fill="none" stroke="#fff" style="stroke: var(--color2, #fff)" stroke-linejoin="round" stroke-linecap="round" stroke-miterlimit="4" stroke-width="2.6667" d="M14.667 25.333c5.891 0 10.667-4.776 10.667-10.667s-4.776-10.667-10.667-10.667v0c-5.891 0-10.667 4.776-10.667 10.667s4.776 10.667 10.667 10.667v0zM28 28l-5.8-5.8"></path>
</symbol>
<symbol id="icon-film" viewBox="0 0 32 32">
<path fill="none" stroke="#818181" style="stroke: var(--color3, #818181)" stroke-linejoin="round" stroke-linecap="round" stroke-miterlimit="4" stroke-width="2.6667" d="M26.427 2.667h-20.853c-1.605 0-2.907 1.301-2.907 2.907v0 20.853c0 1.605 1.301 2.907 2.907 2.907v0h20.853c1.605 0 2.907-1.301 2.907-2.907v0-20.853c0-1.605-1.301-2.907-2.907-2.907v0zM9.333 2.667v26.667M22.667 2.667v26.667M2.667 16h26.667M2.667 9.333h6.667M2.667 22.667h6.667M22.667 22.667h6.667M22.667 9.333h6.667"></path>
</symbol>
<symbol id="icon-trailer" viewBox="0 0 32 32">
<path fill="#e74c3c" style="fill: var(--color1, #e74c3c)" d="M5.333 1.333c-1.473 0-2.667 1.194-2.667 2.667v24c0 1.473 1.194 2.667 2.667 2.667h21.333c1.473 0 2.667-1.193 2.667-2.667v-24c0-1.473-1.193-2.667-2.667-2.667h-21.333zM4.667 4h1.333c0.368 0 0.667 0.298 0.667 0.667v1.333c0 0.368-0.299 0.667-0.667 0.667h-1.333c-0.368 0-0.667-0.298-0.667-0.667v-1.333c0-0.368 0.299-0.667 0.667-0.667zM26 4h1.333c0.368 0 0.667 0.298 0.667 0.667v1.333c0 0.368-0.299 0.667-0.667 0.667h-1.333c-0.368 0-0.667-0.298-0.667-0.667v-1.333c0-0.368 0.299-0.667 0.667-0.667zM4.667 8h1.333c0.368 0 0.667 0.298 0.667 0.667v1.333c0 0.368-0.299 0.667-0.667 0.667h-1.333c-0.368 0-0.667-0.298-0.667-0.667v-1.333c0-0.368 0.299-0.667 0.667-0.667zM26 8h1.333c0.368 0 0.667 0.298 0.667 0.667v1.333c0 0.368-0.299 0.667-0.667 0.667h-1.333c-0.368 0-0.667-0.298-0.667-0.667v-1.333c0-0.368 0.299-0.667 0.667-0.667zM4.667 12h1.333c0.368 0 0.667 0.298 0.667 0.667v1.333c0 0.368-0.299 0.667-0.667 0.667h-1.333c-0.368 0-0.667-0.299-0.667-0.667v-1.333c0-0.368 0.299-0.667 0.667-0.667zM26 12h1.333c0.368 0 0.667 0.298 0.667 0.667v1.333c0 0.368-0.299 0.667-0.667 0.667h-1.333c-0.368 0-0.667-0.299-0.667-0.667v-1.333c0-0.368 0.299-0.667 0.667-0.667zM4.667 16h1.333c0.368 0 0.667 0.299 0.667 0.667v1.333c0 0.368-0.299 0.667-0.667 0.667h-1.333c-0.368 0-0.667-0.299-0.667-0.667v-1.333c0-0.368 0.299-0.667 0.667-0.667zM26 16h1.333c0.368 0 0.667 0.299 0.667 0.667v1.333c0 0.368-0.299 0.667-0.667 0.667h-1.333c-0.368 0-0.667-0.299-0.667-0.667v-1.333c0-0.368 0.299-0.667 0.667-0.667zM4.667 20h1.333c0.368 0 0.667 0.299 0.667 0.667v1.333c0 0.368-0.299 0.667-0.667 0.667h-1.333c-0.368 0-0.667-0.299-0.667-0.667v-1.333c0-0.368 0.299-0.667 0.667-0.667zM26 20h1.333c0.368 0 0.667 0.299 0.667 0.667v1.333c0 0.368-0.299 0.667-0.667 0.667h-1.333c-0.368 0-0.667-0.299-0.667-0.667v-1.333c0-0.368 0.299-0.667 0.667-0.667zM4.667 24h1.333c0.368 0 0.667 0.299 0.667 0.667v1.333c0 0.368-0.299 0.667-0.667 0.667h-1.333c-0.368 0-0.667-0.299-0.667-0.667v-1.333c0-0.368 0.299-0.667 0.667-0.667zM26 24h1.333c0.368 0 0.667 0.299 0.667 0.667v1.333c0 0.368-0.299 0.667-0.667 0.667h-1.333c-0.368 0-0.667-0.299-0.667-0.667v-1.333c0-0.368 0.299-0.667 0.667-0.667z"></path>
<path fill="#c0392b" style="fill: var(--color2, #c0392b)" d="M2.667 16v12c0 1.467 1.194 2.667 2.667 2.667h21.333c1.473 0 2.667-1.2 2.667-2.667v-12h-2c0.368 0 0.667 0.267 0.667 0.667v1.333c0 0.267-0.299 0.667-0.667 0.667h-1.333c-0.368 0-0.667-0.4-0.667-0.667v-1.333c0-0.4 0.299-0.667 0.667-0.667h-20c0.368 0 0.667 0.267 0.667 0.667v1.333c0 0.267-0.299 0.667-0.667 0.667h-1.333c-0.368 0-0.667-0.4-0.667-0.667v-1.333c0-0.4 0.299-0.667 0.667-0.667h-2zM4.667 20h1.333c0.368 0 0.667 0.267 0.667 0.667v1.333c0 0.267-0.299 0.667-0.667 0.667h-1.333c-0.368 0-0.667-0.4-0.667-0.667v-1.333c0-0.4 0.299-0.667 0.667-0.667zM26 20h1.333c0.368 0 0.667 0.267 0.667 0.667v1.333c0 0.267-0.299 0.667-0.667 0.667h-1.333c-0.368 0-0.667-0.4-0.667-0.667v-1.333c0-0.4 0.299-0.667 0.667-0.667zM4.667 24h1.333c0.368 0 0.667 0.267 0.667 0.667v1.333c0 0.267-0.299 0.667-0.667 0.667h-1.333c-0.368 0-0.667-0.4-0.667-0.667v-1.333c0-0.4 0.299-0.667 0.667-0.667zM26 24h1.333c0.368 0 0.667 0.267 0.667 0.667v1.333c0 0.267-0.299 0.667-0.667 0.667h-1.333c-0.368 0-0.667-0.4-0.667-0.667v-1.333c0-0.4 0.299-0.667 0.667-0.667z"></path>
<path fill="#ecf0f1" style="fill: var(--color3, #ecf0f1)" d="M13.333 19.915v-8l6.667 4z"></path>
</symbol>
</defs>
</svg>
